<svg xmlns="http://www.w3.org/2000/svg" xmlns:xlink="http://www.w3.org/1999/xlink" width="400" zoomAndPan="magnify" viewBox="0 0 300 149.999998" height="200" preserveAspectRatio="xMidYMid meet" version="1.0"><defs><g/><clipPath id="1248f502d7"><path d="M 1 18 L 73 18 L 73 90 L 1 90 Z M 1 18 " clip-rule="nonzero"/></clipPath><clipPath id="cd9f14427f"><path d="M -13.171875 70.289062 L 37.660156 -27.542969 L 129.5 20.175781 L 78.671875 118.007812 Z M -13.171875 70.289062 " clip-rule="nonzero"/></clipPath><clipPath id="34c540d33e"><path d="M -13.171875 70.289062 L 37.660156 -27.542969 L 129.5 20.175781 L 78.671875 118.007812 Z M -13.171875 70.289062 " clip-rule="nonzero"/></clipPath><clipPath id="93179825cd"><path d="M -13.171875 70.289062 L 37.660156 -27.542969 L 129.5 20.175781 L 78.671875 118.007812 Z M -13.171875 70.289062 " clip-rule="nonzero"/></clipPath><clipPath id="fbf10a0b1d"><path d="M 9 38 L 73 38 L 73 90 L 9 90 Z M 9 38 " clip-rule="nonzero"/></clipPath><clipPath id="78e9e2ac79"><path d="M -13.171875 70.289062 L 37.660156 -27.542969 L 129.5 20.175781 L 78.671875 118.007812 Z M -13.171875 70.289062 " clip-rule="nonzero"/></clipPath><clipPath id="387fd32fa9"><path d="M -13.171875 70.289062 L 37.660156 -27.542969 L 129.5 20.175781 L 78.671875 118.007812 Z M -13.171875 70.289062 " clip-rule="nonzero"/></clipPath><clipPath id="f418a4af18"><path d="M -13.171875 70.289062 L 37.660156 -27.542969 L 129.5 20.175781 L 78.671875 118.007812 Z M -13.171875 70.289062 " clip-rule="nonzero"/></clipPath><clipPath id="57011a8414"><path d="M 67 8 L 116 8 L 116 57 L 67 57 Z M 67 8 " clip-rule="nonzero"/></clipPath><clipPath id="5c1e82bfc6"><path d="M -13.171875 70.289062 L 37.660156 -27.542969 L 129.5 20.175781 L 78.671875 118.007812 Z M -13.171875 70.289062 " clip-rule="nonzero"/></clipPath><clipPath id="3d519fb0c8"><path d="M -13.171875 70.289062 L 37.660156 -27.542969 L 129.5 20.175781 L 78.671875 118.007812 Z M -13.171875 70.289062 " clip-rule="nonzero"/></clipPath><clipPath id="6dcbc4c18b"><path d="M -13.171875 70.289062 L 37.660156 -27.542969 L 129.5 20.175781 L 78.671875 118.007812 Z M -13.171875 70.289062 " clip-rule="nonzero"/></clipPath><clipPath id="7f9f1a973f"><path d="M 72 8 L 73 8 L 73 11 L 72 11 Z M 72 8 " clip-rule="nonzero"/></clipPath><clipPath id="bfab661141"><path d="M -13.171875 70.289062 L 37.660156 -27.542969 L 129.5 20.175781 L 78.671875 118.007812 Z M -13.171875 70.289062 " clip-rule="nonzero"/></clipPath><clipPath id="0ce8e03566"><path d="M -13.171875 70.289062 L 37.660156 -27.542969 L 129.5 20.175781 L 78.671875 118.007812 Z M -13.171875 70.289062 " clip-rule="nonzero"/></clipPath><clipPath id="da5f331b15"><path d="M -13.171875 70.289062 L 37.660156 -27.542969 L 129.5 20.175781 L 78.671875 118.007812 Z M -13.171875 70.289062 " clip-rule="nonzero"/></clipPath><clipPath id="136c835f6f"><path d="M 72 8 L 116 8 L 116 57 L 72 57 Z M 72 8 " clip-rule="nonzero"/></clipPath><clipPath id="209b24ccde"><path d="M -13.171875 70.289062 L 37.660156 -27.542969 L 129.5 20.175781 L 78.671875 118.007812 Z M -13.171875 70.289062 " clip-rule="nonzero"/></clipPath><clipPath id="37713e954e"><path d="M -13.171875 70.289062 L 37.660156 -27.542969 L 129.5 20.175781 L 78.671875 118.007812 Z M -13.171875 70.289062 " clip-rule="nonzero"/></clipPath><clipPath id="6cad63b525"><path d="M -13.171875 70.289062 L 37.660156 -27.542969 L 129.5 20.175781 L 78.671875 118.007812 Z M -13.171875 70.289062 " clip-rule="nonzero"/></clipPath></defs><g clip-path="url(#1248f502d7)"><g clip-path="url(#cd9f14427f)"><g clip-path="url(#34c540d33e)"><g clip-path="url(#93179825cd)"><path fill="#f1487a" d="M 48.828125 18.988281 C 45.671875 17.90625 42.324219 19.320312 41.347656 22.148438 C 41.089844 22.902344 41.027344 23.679688 41.128906 24.4375 L 41.132812 24.453125 C 41.210938 24.988281 41.371094 25.519531 41.605469 26.023438 C 42.601562 30.449219 39.464844 31.378906 38.417969 31.566406 L 23.351562 26.394531 L 18.054688 41.777344 C 17.035156 42.574219 14.597656 43.851562 12 40.667969 C 11.753906 40.167969 11.441406 39.71875 11.058594 39.324219 L 11.050781 39.308594 L 11.050781 39.3125 C 10.519531 38.765625 9.871094 38.335938 9.125 38.078125 C 6.300781 37.105469 3.125 38.882812 2.03125 42.050781 C 0.945312 45.214844 2.347656 48.566406 5.171875 49.539062 C 5.921875 49.796875 6.695312 49.851562 7.449219 49.746094 L 7.453125 49.753906 L 7.46875 49.746094 C 8.011719 49.667969 8.535156 49.507812 9.035156 49.265625 C 13.050781 48.351562 14.183594 50.855469 14.496094 52.113281 L 9.195312 67.492188 L 23.96875 72.574219 L 23.953125 72.613281 C 23.953125 72.613281 27.480469 75.746094 23.285156 79.191406 C 22.789062 79.4375 22.335938 79.753906 21.945312 80.132812 L 21.929688 80.144531 C 21.382812 80.679688 20.957031 81.328125 20.695312 82.078125 C 19.71875 84.910156 21.484375 88.085938 24.640625 89.167969 C 27.796875 90.253906 31.148438 88.835938 32.121094 86.003906 C 32.378906 85.253906 32.441406 84.476562 32.339844 83.722656 L 32.335938 83.703125 C 32.261719 83.164062 32.097656 82.636719 31.859375 82.132812 C 30.671875 76.84375 35.382812 76.542969 35.382812 76.542969 L 35.398438 76.5 L 50.179688 81.578125 L 55.285156 66.757812 C 55.285156 66.757812 58.417969 63.214844 61.84375 67.410156 C 62.089844 67.90625 62.402344 68.355469 62.785156 68.75 L 62.792969 68.765625 L 62.796875 68.761719 C 63.324219 69.308594 63.972656 69.742188 64.722656 69.996094 C 67.546875 70.96875 70.722656 69.191406 71.8125 66.027344 C 72.902344 62.863281 71.496094 59.507812 68.671875 58.539062 C 67.921875 58.28125 67.148438 58.222656 66.390625 58.332031 L 66.390625 58.324219 L 66.375 58.332031 C 65.835938 58.410156 65.304688 58.570312 64.808594 58.8125 C 59.53125 60.011719 59.234375 55.304688 59.234375 55.296875 L 64.34375 40.476562 L 49.28125 35.300781 C 48.566406 34.511719 46.675781 31.847656 50.183594 28.964844 C 50.679688 28.71875 51.132812 28.402344 51.523438 28.023438 L 51.542969 28.011719 L 51.539062 28.011719 C 52.085938 27.480469 52.515625 26.832031 52.773438 26.078125 C 53.753906 23.246094 51.984375 20.074219 48.828125 18.988281 " fill-opacity="1" fill-rule="nonzero"/></g></g></g></g><g clip-path="url(#fbf10a0b1d)"><g clip-path="url(#78e9e2ac79)"><g clip-path="url(#387fd32fa9)"><g clip-path="url(#f418a4af18)"><path fill="#d9346d" d="M 32.121094 86.003906 C 32.378906 85.253906 32.441406 84.476562 32.339844 83.722656 L 32.335938 83.703125 C 32.261719 83.164062 32.097656 82.636719 31.859375 82.132812 C 30.671875 76.84375 35.382812 76.542969 35.382812 76.542969 L 35.398438 76.5 L 50.179688 81.578125 L 55.285156 66.757812 C 55.285156 66.757812 58.417969 63.214844 61.84375 67.410156 C 62.089844 67.90625 62.402344 68.355469 62.785156 68.75 L 62.792969 68.765625 L 62.796875 68.761719 C 63.324219 69.308594 63.972656 69.742188 64.722656 69.996094 C 67.546875 70.96875 70.722656 69.191406 71.8125 66.027344 C 72.902344 62.863281 71.496094 59.507812 68.671875 58.539062 C 67.921875 58.28125 67.148438 58.222656 66.390625 58.332031 L 66.390625 58.324219 L 66.375 58.332031 C 65.835938 58.410156 65.304688 58.570312 64.808594 58.8125 C 59.53125 60.011719 59.234375 55.304688 59.234375 55.296875 L 64.34375 40.476562 L 57.222656 38.027344 C 42.289062 62.679688 22.753906 64.792969 10.6875 63.144531 L 9.195312 67.492188 L 23.96875 72.574219 L 23.953125 72.613281 C 23.953125 72.613281 27.480469 75.746094 23.285156 79.191406 C 22.789062 79.4375 22.335938 79.753906 21.945312 80.132812 L 21.929688 80.144531 C 21.382812 80.679688 20.957031 81.328125 20.695312 82.078125 C 19.71875 84.910156 21.484375 88.085938 24.640625 89.167969 C 27.796875 90.253906 31.148438 88.835938 32.121094 86.003906 " fill-opacity="1" fill-rule="nonzero"/></g></g></g></g><g clip-path="url(#57011a8414)"><g clip-path="url(#5c1e82bfc6)"><g clip-path="url(#3d519fb0c8)"><g clip-path="url(#6dcbc4c18b)"><path fill="#61a3dd" d="M 70.78125 23.871094 C 70.78125 23.871094 72.089844 28.40625 76.984375 26.082031 C 77.421875 25.742188 77.902344 25.464844 78.414062 25.273438 L 78.429688 25.261719 L 78.425781 25.269531 C 79.140625 25 79.914062 24.886719 80.703125 24.972656 C 83.667969 25.308594 85.769531 28.269531 85.386719 31.59375 C 85.011719 34.921875 82.296875 37.347656 79.328125 37.011719 C 78.539062 36.929688 77.816406 36.644531 77.179688 36.234375 L 77.164062 36.21875 C 76.710938 35.921875 76.304688 35.550781 75.957031 35.113281 C 71.707031 31.773438 69.410156 35.910156 69.410156 35.910156 L 67.636719 51.476562 L 83.171875 53.214844 C 83.171875 53.214844 87.707031 51.890625 85.402344 46.992188 C 85.058594 46.554688 84.78125 46.074219 84.589844 45.566406 L 84.585938 45.546875 L 84.589844 45.546875 C 84.324219 44.832031 84.214844 44.0625 84.300781 43.269531 C 84.644531 40.296875 87.605469 38.183594 90.925781 38.558594 C 94.242188 38.925781 96.65625 41.640625 96.320312 44.617188 C 96.226562 45.40625 95.949219 46.132812 95.53125 46.769531 L 95.519531 46.785156 C 95.222656 47.238281 94.839844 47.648438 94.414062 48 C 91.0625 52.269531 95.183594 54.558594 95.183594 54.558594 L 110.71875 56.292969 L 115.640625 13.117188 L 72.558594 8.296875 L 70.78125 23.871094 " fill-opacity="1" fill-rule="nonzero"/></g></g></g></g><g clip-path="url(#7f9f1a973f)"><g clip-path="url(#bfab661141)"><g clip-path="url(#0ce8e03566)"><g clip-path="url(#da5f331b15)"><path fill="#a1bedd" d="M 72.320312 10.378906 L 72.558594 8.296875 L 72.320312 10.378906 " fill-opacity="1" fill-rule="nonzero"/></g></g></g></g><g clip-path="url(#136c835f6f)"><g clip-path="url(#209b24ccde)"><g clip-path="url(#37713e954e)"><g clip-path="url(#6cad63b525)"><path fill="#5698cf" d="M 110.71875 56.292969 L 104.746094 55.625 C 106.898438 45.238281 107.4375 21.613281 72.320312 10.378906 L 72.558594 8.296875 L 115.640625 13.117188 L 110.71875 56.292969 " fill-opacity="1" fill-rule="nonzero"/></g></g></g></g><g fill="#3d0301" fill-opacity="1"><g transform="translate(48.250795, 124.353511)"><g><path d="M 24.765625 -31.15625 L 24.765625 -27.734375 C 24.765625 -27.222656 24.691406 -26.859375 24.546875 -26.640625 C 24.410156 -26.421875 24.117188 -26.3125 23.671875 -26.3125 L 15.625 -26.3125 C 15.238281 -26.3125 14.972656 -26.410156 14.828125 -26.609375 C 14.691406 -26.804688 14.625 -27.117188 14.625 -27.546875 L 14.625 -30.8125 C 14.625 -31.082031 14.582031 -31.367188 14.5 -31.671875 C 14.414062 -31.972656 14.269531 -32.234375 14.0625 -32.453125 C 13.851562 -32.671875 13.554688 -32.78125 13.171875 -32.78125 C 12.640625 -32.78125 12.25 -32.585938 12 -32.203125 C 11.75 -31.828125 11.625 -31.394531 11.625 -30.90625 L 11.625 -11.171875 C 11.625 -10.671875 11.722656 -10.207031 11.921875 -9.78125 C 12.128906 -9.351562 12.546875 -9.140625 13.171875 -9.140625 C 13.878906 -9.140625 14.320312 -9.351562 14.5 -9.78125 C 14.6875 -10.207031 14.78125 -10.671875 14.78125 -11.171875 L 14.78125 -15.46875 C 14.78125 -15.9375 14.84375 -16.253906 14.96875 -16.421875 C 15.101562 -16.597656 15.363281 -16.6875 15.75 -16.6875 L 23.828125 -16.6875 C 24.253906 -16.6875 24.546875 -16.613281 24.703125 -16.46875 C 24.867188 -16.320312 24.953125 -16.019531 24.953125 -15.5625 L 24.953125 -10.53125 C 24.953125 -8.71875 24.640625 -7.109375 24.015625 -5.703125 C 23.398438 -4.304688 22.550781 -3.128906 21.46875 -2.171875 C 20.394531 -1.222656 19.140625 -0.503906 17.703125 -0.015625 C 16.273438 0.460938 14.734375 0.703125 13.078125 0.703125 C 11.441406 0.703125 9.878906 0.460938 8.390625 -0.015625 C 6.910156 -0.503906 5.59375 -1.222656 4.4375 -2.171875 C 3.289062 -3.128906 2.382812 -4.304688 1.71875 -5.703125 C 1.0625 -7.109375 0.734375 -8.71875 0.734375 -10.53125 L 0.734375 -31.390625 C 0.734375 -33.003906 1.03125 -34.492188 1.625 -35.859375 C 2.21875 -37.222656 3.0625 -38.410156 4.15625 -39.421875 C 5.257812 -40.429688 6.566406 -41.210938 8.078125 -41.765625 C 9.597656 -42.316406 11.265625 -42.59375 13.078125 -42.59375 C 15.191406 -42.59375 16.988281 -42.257812 18.46875 -41.59375 C 19.957031 -40.925781 21.164062 -40.039062 22.09375 -38.9375 C 23.03125 -37.84375 23.707031 -36.617188 24.125 -35.265625 C 24.550781 -33.910156 24.765625 -32.539062 24.765625 -31.15625 Z M 24.765625 -31.15625 "/></g></g></g><g fill="#3d0301" fill-opacity="1"><g transform="translate(75.008091, 124.353511)"><g><path d="M 25.484375 -31.390625 L 25.484375 -10.53125 C 25.484375 -8.695312 25.148438 -7.082031 24.484375 -5.6875 C 23.828125 -4.300781 22.914062 -3.128906 21.75 -2.171875 C 20.59375 -1.222656 19.269531 -0.503906 17.78125 -0.015625 C 16.300781 0.460938 14.734375 0.703125 13.078125 0.703125 C 11.441406 0.703125 9.878906 0.453125 8.390625 -0.046875 C 6.910156 -0.554688 5.59375 -1.296875 4.4375 -2.265625 C 3.289062 -3.234375 2.382812 -4.410156 1.71875 -5.796875 C 1.0625 -7.179688 0.734375 -8.757812 0.734375 -10.53125 L 0.734375 -31.390625 C 0.734375 -33.210938 1.0625 -34.816406 1.71875 -36.203125 C 2.382812 -37.597656 3.285156 -38.769531 4.421875 -39.71875 C 5.566406 -40.664062 6.878906 -41.378906 8.359375 -41.859375 C 9.847656 -42.347656 11.410156 -42.59375 13.046875 -42.59375 C 14.703125 -42.59375 16.273438 -42.351562 17.765625 -41.875 C 19.265625 -41.40625 20.59375 -40.695312 21.75 -39.75 C 22.914062 -38.800781 23.828125 -37.628906 24.484375 -36.234375 C 25.148438 -34.847656 25.484375 -33.234375 25.484375 -31.390625 Z M 13.140625 -32.78125 C 12.554688 -32.78125 12.15625 -32.554688 11.9375 -32.109375 C 11.726562 -31.671875 11.625 -31.210938 11.625 -30.734375 L 11.625 -11.171875 C 11.625 -10.671875 11.710938 -10.207031 11.890625 -9.78125 C 12.078125 -9.351562 12.472656 -9.140625 13.078125 -9.140625 C 13.703125 -9.140625 14.109375 -9.3125 14.296875 -9.65625 C 14.492188 -10 14.59375 -10.421875 14.59375 -10.921875 L 14.59375 -30.734375 C 14.59375 -31.210938 14.492188 -31.671875 14.296875 -32.109375 C 14.109375 -32.554688 13.722656 -32.78125 13.140625 -32.78125 Z M 13.140625 -32.78125 "/></g></g></g><g fill="#3d0301" fill-opacity="1"><g transform="translate(102.461584, 124.353511)"><g><path d="M 24.703125 0 L 15.921875 0 C 15.617188 0 15.363281 -0.128906 15.15625 -0.390625 C 14.957031 -0.648438 14.859375 -0.941406 14.859375 -1.265625 L 14.859375 -30.765625 C 14.859375 -31.265625 14.765625 -31.722656 14.578125 -32.140625 C 14.390625 -32.566406 14 -32.78125 13.40625 -32.78125 C 12.820312 -32.78125 12.425781 -32.566406 12.21875 -32.140625 C 12.019531 -31.722656 11.921875 -31.265625 11.921875 -30.765625 L 11.921875 -1.265625 C 11.921875 -0.921875 11.859375 -0.625 11.734375 -0.375 C 11.617188 -0.125 11.359375 0 10.953125 0 L 1.84375 0 C 1.625 0 1.429688 -0.128906 1.265625 -0.390625 C 1.109375 -0.648438 1.03125 -0.941406 1.03125 -1.265625 L 1.03125 -31.390625 C 1.03125 -32.941406 1.363281 -34.398438 2.03125 -35.765625 C 2.695312 -37.128906 3.601562 -38.328125 4.75 -39.359375 C 5.90625 -40.390625 7.222656 -41.191406 8.703125 -41.765625 C 10.179688 -42.335938 11.738281 -42.625 13.375 -42.625 C 15.007812 -42.625 16.570312 -42.335938 18.0625 -41.765625 C 19.5625 -41.191406 20.882812 -40.390625 22.03125 -39.359375 C 23.1875 -38.328125 24.097656 -37.128906 24.765625 -35.765625 C 25.429688 -34.398438 25.765625 -32.941406 25.765625 -31.390625 L 25.765625 -1.265625 C 25.765625 -0.941406 25.671875 -0.648438 25.484375 -0.390625 C 25.304688 -0.128906 25.046875 0 24.703125 0 Z M 24.703125 0 "/></g></g></g><g fill="#3d0301" fill-opacity="1"><g transform="translate(130.490196, 124.353511)"><g><path d="M 24.703125 0 L 15.921875 0 C 15.617188 0 15.363281 -0.128906 15.15625 -0.390625 C 14.957031 -0.648438 14.859375 -0.941406 14.859375 -1.265625 L 14.859375 -30.765625 C 14.859375 -31.265625 14.765625 -31.722656 14.578125 -32.140625 C 14.390625 -32.566406 14 -32.78125 13.40625 -32.78125 C 12.820312 -32.78125 12.425781 -32.566406 12.21875 -32.140625 C 12.019531 -31.722656 11.921875 -31.265625 11.921875 -30.765625 L 11.921875 -1.265625 C 11.921875 -0.921875 11.859375 -0.625 11.734375 -0.375 C 11.617188 -0.125 11.359375 0 10.953125 0 L 1.84375 0 C 1.625 0 1.429688 -0.128906 1.265625 -0.390625 C 1.109375 -0.648438 1.03125 -0.941406 1.03125 -1.265625 L 1.03125 -31.390625 C 1.03125 -32.941406 1.363281 -34.398438 2.03125 -35.765625 C 2.695312 -37.128906 3.601562 -38.328125 4.75 -39.359375 C 5.90625 -40.390625 7.222656 -41.191406 8.703125 -41.765625 C 10.179688 -42.335938 11.738281 -42.625 13.375 -42.625 C 15.007812 -42.625 16.570312 -42.335938 18.0625 -41.765625 C 19.5625 -41.191406 20.882812 -40.390625 22.03125 -39.359375 C 23.1875 -38.328125 24.097656 -37.128906 24.765625 -35.765625 C 25.429688 -34.398438 25.765625 -32.941406 25.765625 -31.390625 L 25.765625 -1.265625 C 25.765625 -0.941406 25.671875 -0.648438 25.484375 -0.390625 C 25.304688 -0.128906 25.046875 0 24.703125 0 Z M 24.703125 0 "/></g></g></g><g fill="#3d0301" fill-opacity="1"><g transform="translate(158.518822, 124.353511)"><g><path d="M 12.046875 -9.8125 L 22.671875 -9.8125 C 23.296875 -9.8125 23.609375 -9.414062 23.609375 -8.625 L 23.609375 -1.1875 C 23.609375 -0.394531 23.296875 0 22.671875 0 L 2.296875 0 C 1.535156 0 1.15625 -0.410156 1.15625 -1.234375 L 1.15625 -40.65625 C 1.15625 -41.5 1.535156 -41.921875 2.296875 -41.921875 L 22.4375 -41.921875 C 23.019531 -41.921875 23.3125 -41.5 23.3125 -40.65625 L 23.3125 -33.296875 C 23.3125 -32.472656 23.019531 -32.0625 22.4375 -32.0625 L 12.046875 -32.0625 L 12.046875 -25.890625 L 20.1875 -25.890625 C 20.507812 -25.890625 20.765625 -25.785156 20.953125 -25.578125 C 21.148438 -25.378906 21.25 -25.066406 21.25 -24.640625 L 21.25 -17.28125 C 21.25 -16.476562 20.894531 -16.078125 20.1875 -16.078125 L 12.046875 -16.078125 Z M 12.046875 -9.8125 "/></g></g></g><g fill="#3d0301" fill-opacity="1"><g transform="translate(183.550744, 124.353511)"><g><path d="M 24.765625 -31.15625 L 24.765625 -27.734375 C 24.765625 -27.222656 24.691406 -26.859375 24.546875 -26.640625 C 24.410156 -26.421875 24.117188 -26.3125 23.671875 -26.3125 L 15.625 -26.3125 C 15.238281 -26.3125 14.972656 -26.410156 14.828125 -26.609375 C 14.691406 -26.804688 14.625 -27.117188 14.625 -27.546875 L 14.625 -30.8125 C 14.625 -31.082031 14.582031 -31.367188 14.5 -31.671875 C 14.414062 -31.972656 14.269531 -32.234375 14.0625 -32.453125 C 13.851562 -32.671875 13.554688 -32.78125 13.171875 -32.78125 C 12.640625 -32.78125 12.25 -32.585938 12 -32.203125 C 11.75 -31.828125 11.625 -31.394531 11.625 -30.90625 L 11.625 -11.171875 C 11.625 -10.671875 11.722656 -10.207031 11.921875 -9.78125 C 12.128906 -9.351562 12.546875 -9.140625 13.171875 -9.140625 C 13.878906 -9.140625 14.320312 -9.351562 14.5 -9.78125 C 14.6875 -10.207031 14.78125 -10.671875 14.78125 -11.171875 L 14.78125 -15.46875 C 14.78125 -15.9375 14.84375 -16.253906 14.96875 -16.421875 C 15.101562 -16.597656 15.363281 -16.6875 15.75 -16.6875 L 23.828125 -16.6875 C 24.253906 -16.6875 24.546875 -16.613281 24.703125 -16.46875 C 24.867188 -16.320312 24.953125 -16.019531 24.953125 -15.5625 L 24.953125 -10.53125 C 24.953125 -8.71875 24.640625 -7.109375 24.015625 -5.703125 C 23.398438 -4.304688 22.550781 -3.128906 21.46875 -2.171875 C 20.394531 -1.222656 19.140625 -0.503906 17.703125 -0.015625 C 16.273438 0.460938 14.734375 0.703125 13.078125 0.703125 C 11.441406 0.703125 9.878906 0.460938 8.390625 -0.015625 C 6.910156 -0.503906 5.59375 -1.222656 4.4375 -2.171875 C 3.289062 -3.128906 2.382812 -4.304688 1.71875 -5.703125 C 1.0625 -7.109375 0.734375 -8.71875 0.734375 -10.53125 L 0.734375 -31.390625 C 0.734375 -33.003906 1.03125 -34.492188 1.625 -35.859375 C 2.21875 -37.222656 3.0625 -38.410156 4.15625 -39.421875 C 5.257812 -40.429688 6.566406 -41.210938 8.078125 -41.765625 C 9.597656 -42.316406 11.265625 -42.59375 13.078125 -42.59375 C 15.191406 -42.59375 16.988281 -42.257812 18.46875 -41.59375 C 19.957031 -40.925781 21.164062 -40.039062 22.09375 -38.9375 C 23.03125 -37.84375 23.707031 -36.617188 24.125 -35.265625 C 24.550781 -33.910156 24.765625 -32.539062 24.765625 -31.15625 Z M 24.765625 -31.15625 "/></g></g></g><g fill="#3d0301" fill-opacity="1"><g transform="translate(210.308018, 124.353511)"><g><path d="M 21.859375 -32.0625 L 16.765625 -32.0625 L 16.765625 -1.1875 C 16.765625 -0.394531 16.453125 0 15.828125 0 L 6.8125 0 C 6.1875 0 5.875 -0.394531 5.875 -1.1875 L 5.875 -32.0625 L 0.75 -32.0625 C 0.125 -32.0625 -0.1875 -32.472656 -0.1875 -33.296875 L -0.1875 -40.65625 C -0.1875 -41.5 0.125 -41.921875 0.75 -41.921875 L 21.859375 -41.921875 C 22.503906 -41.921875 22.828125 -41.5 22.828125 -40.65625 L 22.828125 -33.296875 C 22.828125 -32.472656 22.503906 -32.0625 21.859375 -32.0625 Z M 21.859375 -32.0625 "/></g></g></g><g fill="#3d0301" fill-opacity="1"><g transform="translate(234.159423, 124.353511)"><g><path d="M 12.046875 -40.65625 L 12.046875 -1.234375 C 12.046875 -0.410156 11.671875 0 10.921875 0 L 2.296875 0 C 1.535156 0 1.15625 -0.410156 1.15625 -1.234375 L 1.15625 -40.65625 C 1.15625 -41.5 1.535156 -41.921875 2.296875 -41.921875 L 10.921875 -41.921875 C 11.671875 -41.921875 12.046875 -41.5 12.046875 -40.65625 Z M 12.046875 -40.65625 "/></g></g></g><g fill="#3d0301" fill-opacity="1"><g transform="translate(248.627273, 124.353511)"><g><path d="M 22.4375 -40.65625 L 22.4375 -33.296875 C 22.4375 -32.472656 22.148438 -32.0625 21.578125 -32.0625 L 12.046875 -32.0625 L 12.046875 -25.28125 L 19.3125 -25.28125 C 19.976562 -25.28125 20.3125 -24.863281 20.3125 -24.03125 L 20.3125 -16.6875 C 20.3125 -15.894531 19.976562 -15.5 19.3125 -15.5 L 12.046875 -15.5 L 12.046875 -1.234375 C 12.046875 -0.410156 11.671875 0 10.921875 0 L 2.296875 0 C 1.535156 0 1.15625 -0.410156 1.15625 -1.234375 L 1.15625 -40.65625 C 1.15625 -41.5 1.535156 -41.921875 2.296875 -41.921875 L 21.578125 -41.921875 C 22.148438 -41.921875 22.4375 -41.5 22.4375 -40.65625 Z M 22.4375 -40.65625 "/></g></g></g><g fill="#3d0301" fill-opacity="1"><g transform="translate(272.448414, 124.353511)"><g><path d="M 18.828125 -16.65625 L 18.828125 -1.234375 C 18.828125 -0.410156 18.503906 0 17.859375 0 L 8.90625 0 C 8.28125 0 7.96875 -0.410156 7.96875 -1.234375 L 7.96875 -16.6875 C 6.632812 -17.226562 5.441406 -17.976562 4.390625 -18.9375 C 3.335938 -19.894531 2.515625 -21.039062 1.921875 -22.375 C 1.328125 -23.707031 1.03125 -25.210938 1.03125 -26.890625 L 1.03125 -41.296875 C 1.03125 -41.710938 1.234375 -41.921875 1.640625 -41.921875 L 11.140625 -41.921875 C 11.359375 -41.921875 11.539062 -41.867188 11.6875 -41.765625 C 11.84375 -41.671875 11.921875 -41.535156 11.921875 -41.359375 L 11.921875 -27.515625 C 11.921875 -27.015625 12.003906 -26.550781 12.171875 -26.125 C 12.347656 -25.695312 12.75 -25.484375 13.375 -25.484375 C 14 -25.484375 14.398438 -25.65625 14.578125 -26 C 14.765625 -26.34375 14.859375 -26.769531 14.859375 -27.28125 L 14.859375 -41.265625 C 14.859375 -41.703125 15.070312 -41.921875 15.5 -41.921875 L 25.125 -41.921875 C 25.289062 -41.921875 25.4375 -41.882812 25.5625 -41.8125 C 25.695312 -41.75 25.765625 -41.578125 25.765625 -41.296875 L 25.765625 -26.890625 C 25.765625 -25.171875 25.46875 -23.632812 24.875 -22.28125 C 24.28125 -20.925781 23.460938 -19.78125 22.421875 -18.84375 C 21.378906 -17.90625 20.179688 -17.175781 18.828125 -16.65625 Z M 18.828125 -16.65625 "/></g></g></g></svg>